<?xml version="1.0" encoding="utf-8"?>
<!-- Designed by Vexels.com - 2016 All Rights Reserved - https://vexels.com/terms-and-conditions/  -->

<svg version="1.0" id="Capa_1" xmlns="http://www.w3.org/2000/svg" xmlns:xlink="http://www.w3.org/1999/xlink" x="0px" y="0px"
	 width="1200px" height="1199.999px" viewBox="0 0 1200 1199.999" enable-background="new 0 0 1200 1199.999" xml:space="preserve">
<g>
	<path fill="#14327D" d="M1102.227,635.729c-0.927-277.633-226.226-502.336-504.04-502.336
		c-277.799,0-503.063,224.703-504.025,502.336H1102.227z"/>
	<path fill="#14327D" d="M1067.339,905.804H132.633c-12.341,0-24.089-2.407-34.861-6.674c-0.412,6.064-0.699,12.28-0.699,18.558
		c0,82.275,37.176,148.918,82.945,148.918h839.341c45.801,0,82.93-66.643,82.93-148.918c0-6.247-0.228-12.311-0.687-18.314
		C1091.016,903.488,1079.467,905.804,1067.339,905.804z"/>
	<path fill="#EE2831" d="M1159.729,767.216c0,49.487-41.335,89.68-92.391,89.68H132.633c-51.024,0-92.362-40.193-92.362-89.68l0,0
		c0-49.578,41.338-89.741,92.362-89.741h934.705C1118.394,677.476,1159.729,717.638,1159.729,767.216L1159.729,767.216z"/>
	<path fill="#FFFFFF" d="M994.706,536.696c0,21.969-17.811,39.734-39.735,39.734c-21.939,0-39.75-17.765-39.75-39.734
		c0-21.942,17.811-39.769,39.75-39.769C976.895,496.927,994.706,514.753,994.706,536.696z"/>
	<path fill="#FFFFFF" d="M916.41,409.473c0,21.97-17.811,39.766-39.738,39.766c-21.97,0-39.719-17.795-39.719-39.766
		c0-21.908,17.749-39.735,39.719-39.735C898.599,369.738,916.41,387.565,916.41,409.473z"/>
	<path fill="#FFFFFF" d="M729.217,213.262c0,15.205-12.353,27.578-27.637,27.578c-15.19,0-27.547-12.372-27.547-27.578
		c0-15.205,12.357-27.606,27.547-27.606C716.864,185.656,729.217,198.056,729.217,213.262z"/>
	<path fill="#FFFFFF" d="M634.052,213.262c0,15.205-12.357,27.578-27.59,27.578c-15.221,0-27.593-12.372-27.593-27.578
		c0-15.205,12.372-27.606,27.593-27.606C621.696,185.656,634.052,198.056,634.052,213.262z"/>
	<path fill="#FFFFFF" d="M532.11,213.262c0,15.205-12.372,27.578-27.593,27.578c-15.237,0-27.624-12.372-27.624-27.578
		c0-15.205,12.388-27.606,27.624-27.606C519.738,185.656,532.11,198.056,532.11,213.262z"/>
	<path fill="#FFFFFF" d="M847.909,301.814c0,21.97-17.811,39.766-39.737,39.766c-21.971,0-39.782-17.795-39.782-39.766
		c0-21.908,17.811-39.735,39.782-39.735C830.098,262.079,847.909,279.906,847.909,301.814z"/>
	<path fill="#FFFFFF" d="M710.888,301.814c0,21.97-17.811,39.766-39.735,39.766c-21.97,0-39.781-17.795-39.781-39.766
		c0-21.908,17.811-39.735,39.781-39.735C693.077,262.079,710.888,279.906,710.888,301.814z"/>
	<path fill="#FFFFFF" d="M564.091,301.814c0,21.97-17.798,39.766-39.769,39.766c-21.939,0-39.75-17.795-39.75-39.766
		c0-21.908,17.811-39.735,39.75-39.735C546.292,262.079,564.091,279.906,564.091,301.814z"/>
	<path fill="#FFFFFF" d="M417.26,301.814c0,21.97-17.78,39.766-39.735,39.766c-21.974,0-39.753-17.795-39.753-39.766
		c0-21.908,17.78-39.735,39.753-39.735C399.48,262.079,417.26,279.906,417.26,301.814z"/>
	<path fill="#FFFFFF" d="M779.392,409.473c0,21.97-17.811,39.766-39.738,39.766c-21.986,0-39.766-17.795-39.766-39.766
		c0-21.908,17.78-39.735,39.766-39.735C761.581,369.738,779.392,387.565,779.392,409.473z"/>
	<path fill="#FFFFFF" d="M642.328,409.473c0,21.97-17.752,39.766-39.691,39.766c-21.955,0-39.766-17.795-39.766-39.766
		c0-21.908,17.811-39.735,39.766-39.735C624.576,369.738,642.328,387.565,642.328,409.473z"/>
	<path fill="#FFFFFF" d="M495.574,409.473c0,21.97-17.811,39.766-39.753,39.766c-21.955,0-39.75-17.795-39.75-39.766
		c0-21.908,17.795-39.735,39.75-39.735C477.763,369.738,495.574,387.565,495.574,409.473z"/>
	<path fill="#FFFFFF" d="M348.743,409.473c0,21.97-17.795,39.766-39.738,39.766c-21.97,0-39.75-17.795-39.75-39.766
		c0-21.908,17.78-39.735,39.75-39.735C330.947,369.738,348.743,387.565,348.743,409.473z"/>
	<path fill="#FFFFFF" d="M847.909,536.696c0,21.969-17.811,39.734-39.737,39.734c-21.971,0-39.782-17.765-39.782-39.734
		c0-21.942,17.811-39.769,39.782-39.769C830.098,496.927,847.909,514.753,847.909,536.696z"/>
	<path fill="#FFFFFF" d="M710.888,536.696c0,21.969-17.811,39.734-39.735,39.734c-21.97,0-39.781-17.765-39.781-39.734
		c0-21.942,17.811-39.769,39.781-39.769C693.077,496.927,710.888,514.753,710.888,536.696z"/>
	<path fill="#FFFFFF" d="M564.091,536.696c0,21.969-17.798,39.734-39.769,39.734c-21.939,0-39.75-17.765-39.75-39.734
		c0-21.942,17.811-39.769,39.75-39.769C546.292,496.927,564.091,514.753,564.091,536.696z"/>
	<path fill="#FFFFFF" d="M417.26,536.696c0,21.969-17.78,39.734-39.735,39.734c-21.974,0-39.753-17.765-39.753-39.734
		c0-21.942,17.78-39.769,39.753-39.769C399.48,496.927,417.26,514.753,417.26,536.696z"/>
	<path fill="#FFFFFF" d="M270.459,536.696c0,21.969-17.811,39.734-39.75,39.734c-21.955,0-39.738-17.765-39.738-39.734
		c0-21.942,17.783-39.769,39.738-39.769C252.648,496.927,270.459,514.753,270.459,536.696z"/>
</g>
</svg>
